<?xml version="1.0" standalone="no"?>
<!DOCTYPE svg PUBLIC "-//W3C//DTD SVG 20010904//EN"
 "http://www.w3.org/TR/2001/REC-SVG-20010904/DTD/svg10.dtd">
<svg version="1.0" xmlns="http://www.w3.org/2000/svg"
 width="512.000000pt" height="512.000000pt" viewBox="0 0 512.000000 512.000000"
 preserveAspectRatio="xMidYMid meet">
<metadata>
Created by potrace 1.14, written by Peter Selinger 2001-2017
</metadata>
<g transform="translate(0.000000,512.000000) scale(0.100000,-0.100000)"
fill="#000000" stroke="none">
<path d="M2544 5109 c-565 -34 -1114 -245 -1549 -596 -185 -149 -450 -441
-538 -594 -11 -20 -32 -42 -47 -51 -51 -29 -196 -310 -270 -523 -95 -275 -133
-503 -132 -800 1 -636 238 -1214 692 -1689 835 -873 2200 -1103 3305 -556 297
146 496 289 731 524 143 144 308 352 359 453 24 47 26 56 15 88 -6 20 -22 42
-33 50 -12 7 -323 176 -692 374 -368 199 -674 369 -680 378 -35 60 -100 86
-154 63 -17 -7 -52 -42 -80 -80 -119 -159 -302 -279 -516 -336 -105 -28 -359
-26 -470 4 -330 91 -575 340 -642 656 -21 101 -13 296 17 391 90 287 334 509
646 587 126 31 322 31 449 0 176 -44 378 -164 476 -284 44 -54 91 -125 106
-160 7 -15 24 -35 38 -44 61 -40 56 -42 807 362 665 359 704 381 722 417 16
34 17 42 4 75 -9 24 -27 44 -56 61 -27 17 -60 53 -93 101 -83 123 -190 248
-311 366 -350 341 -762 568 -1248 688 -177 43 -316 64 -514 76 -166 10 -156
10 -342 -1z m521 -234 c140 -19 299 -53 405 -88 l75 -25 -85 5 c-158 10 -428
-23 -610 -74 -522 -146 -947 -489 -1175 -948 -84 -168 -124 -282 -157 -447
-19 -96 -23 -144 -22 -313 0 -178 3 -214 27 -326 96 -453 326 -786 663 -959
145 -74 358 -128 514 -131 l55 0 -45 -21 c-81 -35 -272 -85 -398 -103 -164
-23 -420 -17 -576 14 -732 147 -1276 722 -1325 1400 -27 382 87 745 341 1083
400 532 1056 885 1758 947 138 13 405 6 555 -14z m470 -335 c414 -39 785 -206
1060 -475 98 -97 186 -206 170 -212 -6 -2 -259 -138 -564 -302 l-553 -299 -46
52 c-298 337 -791 469 -1232 331 -228 -72 -445 -227 -579 -414 -56 -80 -61
-69 -31 71 60 280 191 524 395 737 194 202 406 335 677 426 238 79 467 107
703 85z m-3200 -2471 c185 -327 469 -590 820 -760 728 -353 1599 -247 2217
270 92 77 218 211 277 293 14 21 30 38 35 38 10 0 1124 -597 1140 -611 10 -9
-13 -43 -98 -149 -330 -407 -829 -720 -1356 -849 -604 -148 -1223 -84 -1775
183 -272 132 -471 272 -680 481 -298 297 -509 658 -606 1037 -21 86 -38 168
-34 168 2 0 29 -46 60 -101z"/>
</g>
</svg>
