<svg width="112" height="125" viewBox="0 0 112 125" fill="none" xmlns="http://www.w3.org/2000/svg">
<path fill-rule="evenodd" clip-rule="evenodd" d="M65.6286 2.57611L104.078 25.0647C108.984 27.9344 112 33.1918 112 38.8758V85.1011C112 90.8182 108.95 96.1008 103.998 98.9586L63.998 122.045C59.0486 124.902 52.9514 124.902 48.002 122.045L8.00197 98.9586C3.05044 96.1008 0 90.8182 0 85.1011L0 39.1721C0 33.3299 3.1843 27.9521 8.30692 25.143L49.8576 2.35808C54.7877 -0.345436 60.7751 -0.262661 65.6286 2.57611Z" fill="#E8F5F6"/>
<path d="M63.3625 35.7629C63.3624 34.3067 62.9305 32.8833 62.1215 31.6726C61.3124 30.4619 60.1625 29.5183 58.8172 28.9611C57.4719 28.4039 55.9915 28.2582 54.5634 28.5423C53.1352 28.8264 51.8234 29.5277 50.7937 30.5573C49.7641 31.587 49.0629 32.8989 48.7789 34.3271C48.4948 35.7552 48.6407 37.2356 49.1979 38.5809C49.7552 39.9262 50.6989 41.076 51.9096 41.885C53.1204 42.694 54.5438 43.1258 56 43.1258C57.952 43.1234 59.8233 42.347 61.2036 40.9666C62.5838 39.5863 63.3602 37.7149 63.3625 35.7629V35.7629ZM51.8375 35.7629C51.8375 34.9396 52.0817 34.1349 52.5392 33.4504C52.9966 32.766 53.6467 32.2325 54.4073 31.9175C55.1679 31.6025 56.0049 31.5201 56.8123 31.6808C57.6197 31.8415 58.3613 32.2379 58.9434 32.8201C59.5255 33.4022 59.9219 34.1439 60.0825 34.9514C60.2431 35.7588 60.1606 36.5957 59.8456 37.3563C59.5305 38.1169 58.997 38.7669 58.3125 39.2243C57.628 39.6817 56.8232 39.9258 56 39.9258C54.8963 39.9245 53.8383 39.4855 53.0579 38.705C52.2776 37.9246 51.8387 36.8665 51.8375 35.7629V35.7629Z" fill="#138496"/>
<path d="M58.8689 100.635C59.5264 101.289 60.3626 101.733 61.2721 101.912C62.1816 102.091 63.1238 101.996 63.9798 101.641C64.8358 101.285 65.5673 100.684 66.0821 99.9128C66.597 99.142 66.8721 98.236 66.8728 97.309V53.7816H80.1095C81.3525 53.78 82.5441 53.2851 83.4225 52.4056C84.3008 51.526 84.7942 50.3338 84.7942 49.0908C84.7942 47.8478 84.3008 46.6556 83.4225 45.7761C82.5441 44.8966 81.3525 44.4016 80.1095 44.4H31.8908C30.6477 44.4016 29.4562 44.8966 28.5778 45.7761C27.6994 46.6556 27.2061 47.8478 27.2061 49.0908C27.2061 50.3338 27.6994 51.526 28.5778 52.4056C29.4562 53.2851 30.6477 53.78 31.8908 53.7816H45.1275V97.309C45.1275 97.925 45.2488 98.535 45.4846 99.1042C45.7203 99.6733 46.0658 100.19 46.5014 100.626C46.937 101.062 47.4542 101.407 48.0233 101.643C48.5925 101.879 49.2025 102 49.8185 102C50.4345 102 51.0445 101.879 51.6137 101.643C52.1828 101.407 52.6999 101.062 53.1355 100.626C53.5711 100.19 53.9167 99.6733 54.1524 99.1042C54.3882 98.535 54.5095 97.925 54.5095 97.309V74.8H57.4908V97.309C57.4887 97.927 57.6095 98.5394 57.8461 99.1104C58.0827 99.6813 58.4303 100.2 58.8689 100.635V100.635ZM52.9095 71.6C52.4852 71.6 52.0782 71.7686 51.7782 72.0687C51.4781 72.3687 51.3095 72.7757 51.3095 73.2V97.309C51.3101 97.5052 51.2721 97.6996 51.1974 97.8811C51.1228 98.0625 51.013 98.2275 50.8745 98.3665C50.736 98.5054 50.5714 98.6157 50.3902 98.6909C50.209 98.7662 50.0147 98.8049 49.8185 98.8049C49.6223 98.8049 49.428 98.7662 49.2468 98.6909C49.0656 98.6157 48.901 98.5054 48.7625 98.3665C48.6239 98.2275 48.5142 98.0625 48.4396 97.8811C48.3649 97.6996 48.3268 97.5052 48.3275 97.309V52.1816C48.3275 51.7573 48.1589 51.3503 47.8588 51.0503C47.5588 50.7502 47.1518 50.5817 46.7275 50.5816H31.8908C31.6945 50.5824 31.5 50.5444 31.3184 50.4699C31.1368 50.3953 30.9718 50.2856 30.8327 50.1471C30.6936 50.0086 30.5833 49.844 30.508 49.6627C30.4327 49.4815 30.3939 49.2871 30.3939 49.0908C30.3939 48.8945 30.4327 48.7002 30.508 48.5189C30.5833 48.3377 30.6936 48.173 30.8327 48.0345C30.9718 47.896 31.1368 47.7863 31.3184 47.7118C31.5 47.6372 31.6945 47.5992 31.8908 47.6H80.1095C80.3058 47.5992 80.5003 47.6372 80.6819 47.7118C80.8634 47.7863 81.0285 47.896 81.1676 48.0345C81.3066 48.173 81.417 48.3377 81.4923 48.5189C81.5676 48.7002 81.6063 48.8945 81.6063 49.0908C81.6063 49.2871 81.5676 49.4815 81.4923 49.6627C81.417 49.844 81.3066 50.0086 81.1676 50.1471C81.0285 50.2856 80.8634 50.3953 80.6819 50.4699C80.5003 50.5444 80.3058 50.5824 80.1095 50.5816H65.2728C64.8484 50.5817 64.4415 50.7502 64.1414 51.0503C63.8414 51.3503 63.6728 51.7573 63.6728 52.1816V97.309C63.6734 97.5052 63.6353 97.6996 63.5607 97.8811C63.4861 98.0625 63.3763 98.2275 63.2378 98.3665C63.0993 98.5054 62.9347 98.6157 62.7535 98.6909C62.5723 98.7662 62.378 98.8049 62.1818 98.8049C61.9856 98.8049 61.7913 98.7662 61.6101 98.6909C61.4288 98.6157 61.2642 98.5054 61.1257 98.3665C60.9872 98.2275 60.8775 98.0625 60.8028 97.8811C60.7282 97.6996 60.6901 97.5052 60.6908 97.309V73.2C60.6907 72.7757 60.5222 72.3687 60.2221 72.0687C59.9221 71.7686 59.5151 71.6 59.0908 71.6H52.9095Z" fill="#138496"/>
</svg>
