<svg width="112" height="124" viewBox="0 0 112 124" fill="none" xmlns="http://www.w3.org/2000/svg">
<path fill-rule="evenodd" clip-rule="evenodd" d="M65.6286 2.1889L104.078 24.6775C108.984 27.5472 112 32.8046 112 38.4886V84.7139C112 90.431 108.95 95.7136 103.998 98.5714L63.998 121.658C59.0486 124.514 52.9514 124.514 48.002 121.658L8.00197 98.5714C3.05044 95.7136 0 90.431 0 84.7139L0 38.7849C0 32.9427 3.1843 27.5649 8.30692 24.7558L49.8576 1.97087C54.7877 -0.732643 60.7751 -0.649868 65.6286 2.1889Z" fill="#E8F5F6"/>
<path d="M54.5981 63.939C71.5687 63.939 91.1728 60.0377 92.9284 56.5265C94.6839 53.0153 71.0811 48.3338 71.0811 48.3338C65.4242 50.9671 54.5006 50.9671 54.5006 50.9671C54.5006 50.9671 43.5769 50.9671 37.9201 48.3338C37.9201 48.3338 14.4147 53.1129 16.1703 56.624C18.0234 60.0377 37.1398 63.939 54.5981 63.939Z" fill="#138496"/>
<path d="M69.2281 41.604C69.2281 41.604 65.912 22.6827 63.4737 18.9765C61.0354 15.2703 57.3291 23.3655 53.5254 23.3655C49.7216 23.3655 48.8438 18.1963 45.4302 18.0012C41.919 17.8061 38.5054 41.604 38.5054 41.604C38.5054 41.604 56.4513 45.7004 69.2281 41.604Z" fill="#138496"/>
<path d="M38.4076 65.1094C38.4076 65.1094 36.8471 72.3268 46.2102 72.5218C46.2102 72.5218 49.8189 72.5218 51.672 69.3033C52.2572 68.3279 53.135 67.7427 54.3054 67.7427H54.6955C55.7684 67.7427 56.7437 68.3279 57.3289 69.3033C59.182 72.5218 62.7907 72.5218 62.7907 72.5218C72.1538 72.3268 70.5933 65.1094 70.5933 65.1094C66.3019 66.5723 59.5721 66.4748 57.2314 66.3773C56.6462 66.3773 56.3536 66.3773 56.3536 66.3773H52.6473C52.7449 66.2797 43.6743 66.7674 38.4076 65.1094Z" fill="#138496"/>
<path d="M34.7016 65.1094L27.4842 64.0365L15 74.7651C15.2926 74.7651 15.7803 74.7651 16.1704 74.7651C21.7297 74.7651 36.4571 79.4466 36.4571 79.4466L28.6545 86.1764C34.5065 87.3468 52.9401 97.1975 52.9401 97.1975L54.6957 90.7604C39.9683 79.9343 34.7016 65.1094 34.7016 65.1094Z" fill="#138496"/>
<path d="M97.9998 74.4725L82.8822 63.939L74.7871 65.0118C75.2747 67.6452 73.6167 72.4243 73.6167 72.4243C50.3064 90.0777 54.1102 105.78 54.1102 105.78C63.3758 87.4443 83.76 84.9084 83.76 84.9084L74.4945 80.5195C80.5415 76.7157 97.9998 74.4725 97.9998 74.4725Z" fill="#138496"/>
</svg>
