<svg width="320" height="829" viewBox="0 0 320 829" fill="none" xmlns="http://www.w3.org/2000/svg">
<mask id="mask0" mask-type="alpha" maskUnits="userSpaceOnUse" x="0" y="0" width="320" height="829">
<path d="M320 0H0V829H320V0Z" fill="white"/>
</mask>
<g mask="url(#mask0)">
<g filter="url(#filter0_d)">
<path d="M-308.967 44.533C-153.945 20.1777 1.9077 8 158.591 8C315.358 8 472.134 20.1907 628.917 44.5722C644.504 46.9962 656 60.4176 656 76.1921V773C656 790.673 641.673 805 624 805H-304C-321.673 805 -336 790.673 -336 773V76.1453C-336 60.3896 -324.531 46.9784 -308.967 44.533Z" fill="black"/>
</g>
<path d="M-308.967 44.533C-153.945 20.1777 1.9077 8 158.591 8C315.358 8 472.134 20.1907 628.917 44.5722C644.504 46.9962 656 60.4176 656 76.1921V773C656 790.673 641.673 805 624 805H-304C-321.673 805 -336 790.673 -336 773V76.1453C-336 60.3896 -324.531 46.9784 -308.967 44.533Z" fill="#3E00FF"/>
<path d="M-308.967 44.533C-153.945 20.1777 1.9077 8 158.591 8C315.358 8 472.134 20.1907 628.917 44.5722C644.504 46.9962 656 60.4176 656 76.1921V773C656 790.673 641.673 805 624 805H-304C-321.673 805 -336 790.673 -336 773V76.1453C-336 60.3896 -324.531 46.9784 -308.967 44.533Z" fill="url(#paint0_linear)" fill-opacity="0.7"/>
<path opacity="0.164196" fill-rule="evenodd" clip-rule="evenodd" d="M241.706 100.1L275.281 -68.4089C280.839 -96.3079 300.795 -119.156 327.693 -128.418L496.122 -186.413C523.176 -195.728 553.145 -189.886 574.718 -171.091L709.315 -53.8301C730.818 -35.0965 740.723 -6.33229 735.312 21.6687L701.441 196.938C696.012 225.03 675.993 248.085 648.939 257.4L481.91 314.913C454.265 324.432 423.63 318.111 402.009 298.429L266.308 174.89C245.559 156 236.223 127.62 241.706 100.1Z" stroke="#CDDADB" stroke-width="2"/>
<path opacity="0.084196" fill-rule="evenodd" clip-rule="evenodd" d="M306.219 508.714L319.158 443.817C323.05 424.29 337.019 408.299 355.845 401.817L421.202 379.312C440.137 372.792 461.113 376.88 476.214 390.034L528.428 435.512C543.486 448.627 550.42 468.767 546.63 488.372L533.484 556.355C529.682 576.017 515.669 592.153 496.734 598.673L432.357 620.839C413.008 627.502 391.565 623.079 376.431 609.305L323.444 561.078C308.915 547.853 302.378 527.982 306.219 508.714Z" fill="#CDDADB"/>
<path opacity="0.164196" fill-rule="evenodd" clip-rule="evenodd" d="M-128.919 171.139L-71.3676 114.232C-59.2422 102.243 -41.6661 97.5864 -25.195 102L56.3511 123.85C72.9179 128.289 85.8573 141.23 90.294 157.798L112.097 239.215C116.532 255.775 111.798 273.444 99.6771 285.568L40.0862 345.176C27.9602 357.305 10.2837 362.043 -6.28308 357.604L-86.9705 335.984C-103.9 331.448 -117.011 318.045 -121.174 301.019L-141.796 216.67C-145.803 200.285 -140.914 182.999 -128.919 171.139Z" stroke="#DEEDF0" stroke-width="2"/>
</g>
<defs>
<filter id="filter0_d" x="-352" y="-7" width="1024" height="829" filterUnits="userSpaceOnUse" color-interpolation-filters="sRGB">
<feFlood flood-opacity="0" result="BackgroundImageFix"/>
<feColorMatrix in="SourceAlpha" type="matrix" values="0 0 0 0 0 0 0 0 0 0 0 0 0 0 0 0 0 0 127 0" result="hardAlpha"/>
<feOffset dy="1"/>
<feGaussianBlur stdDeviation="8"/>
<feColorMatrix type="matrix" values="0 0 0 0 0.117647 0 0 0 0 0.34902 0 0 0 0 0.360784 0 0 0 0.2 0"/>
<feBlend mode="normal" in2="BackgroundImageFix" result="effect1_dropShadow"/>
<feBlend mode="normal" in="SourceGraphic" in2="effect1_dropShadow" result="shape"/>
</filter>
<linearGradient id="paint0_linear" x1="44.473" y1="796.897" x2="44.473" y2="8" gradientUnits="userSpaceOnUse">
<stop stop-color="#045257"/>
<stop offset="1" stop-color="#4E908D"/>
</linearGradient>
</defs>
</svg>
