<svg width="296" height="257" viewBox="0 0 296 257" fill="none" xmlns="http://www.w3.org/2000/svg">
<path d="M244.648 125.926C239.106 128.157 233.068 129.317 226.854 129.318C219.478 129.318 212.185 127.617 205.764 124.398C193.777 118.39 186.05 107.65 184.809 95.9134C171.221 94.8354 158.887 88.0701 152.003 77.7178C145.084 67.3131 144.574 54.6613 150.255 43.9602C141.559 38.6555 135.496 30.7149 133.271 21.6846C103.672 22.5092 76.4962 31.7916 54.8316 46.8242C60.5083 51.6019 63.8687 58.2397 63.8687 65.3994C63.8687 74.5629 58.3517 82.6231 50.0543 87.2245C45.4275 89.7902 39.9404 91.2848 34.055 91.2848C29.9088 91.2848 25.8648 90.5385 22.1438 89.1289C22.1253 89.1456 22.1068 89.1616 22.0884 89.1782C20.6957 92.5304 19.4811 95.9559 18.4426 99.443C15.677 108.733 14.1963 118.468 14.1963 128.5C14.1963 192.558 74.2204 244.674 147.999 244.674C177.183 244.674 204.205 236.512 226.219 222.69C226.683 222.328 227.279 221.947 227.97 221.554C236.215 216.2 243.741 210.055 250.365 203.225C242.69 198.456 237.829 190.651 237.829 182.151C237.829 176.512 239.923 171.292 243.463 167.035C248.673 160.771 257.025 156.61 266.497 156.296C266.868 156.278 267.248 156.266 267.644 156.266C267.93 156.266 268.217 156.274 268.503 156.282C269.5 151.182 270.115 145.971 270.311 140.669C259.908 138.739 250.761 133.476 244.648 125.926ZM94.0082 206.387C84.7141 206.387 76.4018 202.674 70.9296 196.868C66.5178 192.354 63.8481 186.517 63.8481 180.147C63.8481 165.874 77.2224 154.261 93.6618 154.261C102.956 154.261 111.269 157.975 116.74 163.781C121.152 168.295 123.822 174.132 123.822 180.502C123.822 194.775 110.448 206.387 94.0082 206.387ZM113.713 113.21C104.419 113.21 96.1065 109.497 90.6343 103.691C86.2225 99.1768 83.5528 93.3402 83.5528 86.97C83.5528 72.6966 96.9271 61.0846 113.366 61.0846C122.661 61.0846 130.973 64.7979 136.445 70.6036C140.857 75.1182 143.527 80.9547 143.527 87.325C143.527 101.598 130.153 113.21 113.713 113.21ZM175.306 194.039C163.37 194.039 152.694 189.276 145.658 181.826C140.029 176.032 136.628 168.557 136.628 160.402C136.628 142.05 153.824 127.121 174.959 127.121C186.895 127.121 197.572 131.883 204.608 139.333C210.236 145.127 213.638 152.602 213.638 160.758C213.638 179.109 196.442 194.039 175.306 194.039Z" fill="#D4B783"/>
<path d="M113.367 100.528C121.978 100.528 128.983 94.4459 128.983 86.9693C128.983 79.4928 121.978 73.4103 113.367 73.4103C104.756 73.4103 97.75 79.4928 97.75 86.9693C97.75 94.4459 104.756 100.528 113.367 100.528Z" fill="#89634A"/>
<path d="M93.6626 193.706C102.274 193.706 109.279 187.623 109.279 180.147C109.279 172.67 102.274 166.588 93.6626 166.588C85.0514 166.588 78.0459 172.67 78.0459 180.147C78.0459 187.623 85.0514 193.706 93.6626 193.706Z" fill="#89634A"/>
<path d="M49.6723 65.3982C49.6723 61.3903 47.6578 57.6979 44.3037 55.1698C37.8058 62.0836 32.2072 69.6563 27.6592 77.7535C29.6531 78.5332 31.8232 78.9578 34.0556 78.9578C42.6668 78.9572 49.6723 72.8748 49.6723 65.3982Z" fill="#89634A"/>
<path d="M252.026 182.151C252.026 186.725 254.717 190.913 258.929 193.388C264.696 185.98 269.501 177.966 273.198 169.481C271.445 168.9 269.577 168.592 267.643 168.592C259.033 168.592 252.026 174.674 252.026 182.151Z" fill="#89634A"/>
<path d="M174.96 181.357C188.268 181.357 199.094 171.957 199.094 160.403C199.094 148.848 188.268 139.448 174.96 139.448C161.651 139.448 150.825 148.848 150.825 160.403C150.825 171.957 161.651 181.357 174.96 181.357Z" fill="#89634A"/>
<path d="M136.445 70.603C140.652 75.0664 143.18 80.7655 143.18 86.9694C143.18 101.243 129.806 112.855 113.366 112.855C104.265 112.855 96.1072 109.291 90.6343 103.691C96.1058 109.496 104.419 113.21 113.713 113.21C130.152 113.21 143.527 101.598 143.527 87.3244C143.527 80.9541 140.858 75.1176 136.445 70.603Z" fill="#89634A"/>
<path d="M123.476 180.147C123.476 194.42 110.102 206.032 93.6624 206.032C84.5607 206.032 76.4031 202.469 70.9302 196.868C76.4024 202.674 84.7147 206.387 94.0088 206.387C110.448 206.387 123.822 194.775 123.822 180.502C123.822 174.131 121.153 168.295 116.741 163.781C120.947 168.244 123.476 173.943 123.476 180.147Z" fill="#89634A"/>
<path d="M213.291 160.403C213.291 178.754 196.095 193.684 174.959 193.684C163.216 193.684 152.695 189.071 145.657 181.827C152.693 189.276 163.369 194.039 175.305 194.039C196.441 194.039 213.637 179.11 213.637 160.758C213.637 152.603 210.236 145.128 204.607 139.334C210.031 145.076 213.291 152.414 213.291 160.403Z" fill="#89634A"/>
<path d="M113.366 112.855C129.806 112.855 143.18 101.243 143.18 86.9693C143.18 80.7655 140.652 75.0664 136.445 70.603C130.973 64.7973 122.661 61.084 113.366 61.084C96.927 61.084 83.5527 72.696 83.5527 86.9693C83.5527 93.3402 86.2225 99.1762 90.6342 103.691C96.1078 109.291 104.265 112.855 113.366 112.855ZM113.366 73.4103C121.978 73.4103 128.983 79.4928 128.983 86.9693C128.983 94.4459 121.978 100.528 113.366 100.528C104.755 100.528 97.7497 94.4459 97.7497 86.9693C97.7497 79.4928 104.756 73.4103 113.366 73.4103Z" fill="black"/>
<path d="M93.6623 206.032C110.102 206.032 123.476 194.42 123.476 180.147C123.476 173.943 120.947 168.244 116.741 163.781C111.269 157.975 102.956 154.261 93.6623 154.261C77.2229 154.261 63.8486 165.874 63.8486 180.147C63.8486 186.518 66.5184 192.354 70.9301 196.868C76.403 202.469 84.5599 206.032 93.6623 206.032ZM93.6623 166.588C102.273 166.588 109.279 172.67 109.279 180.147C109.279 187.623 102.273 193.706 93.6623 193.706C85.0511 193.706 78.0456 187.623 78.0456 180.147C78.0456 172.67 85.0511 166.588 93.6623 166.588Z" fill="black"/>
<path d="M295.985 127.329L295.976 126.817C295.93 123.563 292.979 120.901 289.237 120.737C278.678 120.275 269.356 114.797 264.91 106.443C264.026 104.783 262.338 103.549 260.304 103.075C258.269 102.601 256.097 102.937 254.374 103.991C249.614 106.907 243.779 108.512 237.944 108.513C233.001 108.513 228.108 107.37 223.793 105.207C214.24 100.419 208.715 91.1535 209.717 81.6031C209.908 79.7812 209.157 77.9797 207.667 76.6867C206.176 75.3924 204.094 74.7428 202.005 74.9062C201.156 74.9733 200.293 75.0072 199.439 75.0072C189.308 75.0072 179.874 70.285 174.82 62.6833C169.304 54.3889 169.855 43.9663 176.222 36.1298C177.437 34.6353 177.824 32.7493 177.278 30.9823C176.733 29.2154 175.312 27.7498 173.4 26.9824C163.783 23.123 157.475 15.0339 156.939 5.87105C156.749 2.62367 153.686 0.0628645 149.941 0.0209548L149.362 0.0129427C148.909 0.00616319 148.455 0 148 0C66.3922 0 0 57.6449 0 128.5C0 199.355 66.3922 257 148 257C229.608 257 296 199.355 296 128.5C296 128.109 295.993 127.719 295.985 127.329ZM44.3038 55.1698C47.6579 57.6979 49.6724 61.3903 49.6724 65.3982C49.6724 72.8748 42.6669 78.9572 34.0557 78.9572C31.8232 78.9572 29.6532 78.5326 27.6593 77.7529C32.2073 69.6563 37.8059 62.0836 44.3038 55.1698ZM258.93 193.389C254.717 190.914 252.027 186.726 252.027 182.151C252.027 174.675 259.032 168.592 267.644 168.592C269.578 168.592 271.446 168.901 273.198 169.482C269.502 177.966 264.696 185.981 258.93 193.389ZM277.513 157.732C274.626 156.852 271.583 156.359 268.502 156.281C268.216 156.274 267.93 156.265 267.643 156.265C267.258 156.265 266.878 156.283 266.497 156.295C257.024 156.609 248.672 160.77 243.463 167.035C239.923 171.291 237.829 176.511 237.829 182.151C237.829 190.65 242.69 198.455 250.365 203.224C243.74 210.054 236.214 216.199 227.969 221.554C227.386 221.933 226.809 222.318 226.218 222.689C204.204 236.512 177.182 244.673 147.999 244.673C74.2204 244.673 14.1963 192.558 14.1963 128.5C14.1963 118.469 15.6763 108.733 18.4433 99.4418C19.4818 95.9553 20.6964 92.5298 22.0891 89.177C22.0976 89.1573 22.1047 89.137 22.1132 89.1166C22.1232 89.1203 22.1338 89.1234 22.1445 89.1277C25.8655 90.5372 29.9088 91.2836 34.0557 91.2836C39.9411 91.2836 45.4282 89.789 50.055 87.2233C58.3517 82.6218 63.8694 74.5616 63.8694 65.3982C63.8694 58.2384 60.5097 51.6007 54.8323 46.823C54.5122 46.5536 54.1892 46.2874 53.8548 46.0304C77.0896 26.0333 108.698 13.3599 143.652 12.3862C145.893 21.4849 152.003 29.4865 160.765 34.8313C155.04 45.6138 155.553 58.3617 162.525 68.8459C169.461 79.2771 181.888 86.0936 195.58 87.1801C196.831 99.0061 204.616 109.828 216.694 115.882C223.164 119.125 230.512 120.839 237.944 120.839C244.205 120.838 250.29 119.669 255.874 117.422C262.032 125.029 271.25 130.332 281.731 132.276C281.409 141.038 279.962 149.559 277.513 157.732Z" fill="black"/>
<path d="M174.959 193.684C196.095 193.684 213.291 178.754 213.291 160.402C213.291 152.414 210.031 145.076 204.608 139.334C197.572 131.884 186.895 127.121 174.959 127.121C153.824 127.121 136.627 142.051 136.627 160.402C136.627 168.558 140.029 176.033 145.657 181.827C152.695 189.071 163.216 193.684 174.959 193.684ZM174.959 139.448C188.268 139.448 199.094 148.848 199.094 160.402C199.094 171.957 188.268 181.357 174.959 181.357C161.651 181.357 150.824 171.957 150.824 160.402C150.824 148.848 161.651 139.448 174.959 139.448Z" fill="black"/>
</svg>
