<svg width="297" height="257" viewBox="0 0 297 257" fill="none" xmlns="http://www.w3.org/2000/svg">
<path fill-rule="evenodd" clip-rule="evenodd" d="M144.27 48.9802C147.654 48.9802 150.99 49.1675 154.277 49.5419V21.9276C152.706 21.366 151.328 20.4767 150.168 19.3534C148.041 17.294 146.736 14.4858 146.736 11.3499C146.736 8.23748 148.041 5.40585 150.168 3.34648C152.295 1.28711 155.195 0.0234019 158.434 0.0234019C161.648 0.0234019 164.573 1.28711 166.7 3.34648C168.827 5.40585 170.132 8.21408 170.132 11.3499C170.132 14.4624 168.827 17.294 166.7 19.3534C165.564 20.4533 164.138 21.366 162.591 21.9276V50.8758C170.374 52.5139 177.746 55.1818 184.562 58.7154V48.0442C184.562 45.821 186.423 44.019 188.719 44.019H217.819C218.399 42.5915 219.294 41.3044 220.406 40.2279C222.532 38.1685 225.433 36.9048 228.672 36.9048C231.886 36.9048 234.811 38.1685 236.938 40.2279C239.065 42.2873 240.37 45.0955 240.37 48.2314C240.37 51.3438 239.065 54.1755 236.938 56.2348C234.811 58.2942 231.91 59.5579 228.672 59.5579C225.433 59.5579 222.508 58.2942 220.43 56.2348C219.221 55.0647 218.279 53.6372 217.698 52.0459H192.924V63.6533C210.23 75.2606 222.895 92.8823 227.681 113.406H280.468V72.1482C279.187 71.5865 278.002 70.7908 277.036 69.8314C274.909 67.772 273.604 64.9638 273.604 61.8279C273.604 58.7154 274.909 55.8838 277.036 53.8244C279.163 51.7651 282.063 50.5014 285.302 50.5014C288.516 50.5014 291.441 51.7651 293.568 53.8244C295.695 55.8838 297 58.692 297 61.8279C297 64.9404 295.695 67.772 293.568 69.8314C292.239 71.1185 290.595 72.0779 288.782 72.6396V117.454C288.782 119.677 286.921 121.479 284.625 121.479H229.155C229.59 124.849 229.808 128.289 229.808 131.8C229.808 136.48 229.397 141.067 228.623 145.537H274.329C274.909 144.015 275.827 142.682 276.987 141.558C279.114 139.499 282.015 138.235 285.253 138.235C288.468 138.235 291.393 139.499 293.52 141.558C295.646 143.618 296.952 146.426 296.952 149.562C296.952 152.674 295.646 155.506 293.52 157.565C291.393 159.625 288.492 160.888 285.253 160.888C282.039 160.888 279.114 159.625 276.987 157.565C275.851 156.465 274.909 155.108 274.329 153.587H226.811C221.445 172.636 209.263 188.947 192.924 199.899V204.931H217.698C218.279 203.339 219.221 201.912 220.43 200.742C222.508 198.682 225.457 197.419 228.672 197.419C231.91 197.419 234.811 198.682 236.938 200.742C239.065 202.801 240.37 205.633 240.37 208.745C240.37 211.881 239.065 214.689 236.938 216.749C234.811 218.808 231.886 220.072 228.672 220.072C225.433 220.072 222.532 218.808 220.406 216.749C219.318 215.696 218.424 214.408 217.819 212.958H188.743C186.447 212.958 184.586 211.156 184.586 208.932V204.837C177.77 208.371 170.374 211.039 162.615 212.677V235.049C164.186 235.611 165.588 236.523 166.724 237.623C168.851 239.683 170.156 242.514 170.156 245.627C170.156 248.763 168.851 251.571 166.724 253.63C164.597 255.689 161.673 256.953 158.458 256.953C155.219 256.953 152.319 255.689 150.192 253.63C148.065 251.571 146.76 248.739 146.76 245.627C146.76 242.491 148.065 239.683 150.192 237.623C151.352 236.5 152.73 235.611 154.301 235.049V214.034C151.014 214.408 147.678 214.596 144.294 214.596C139.243 214.596 134.288 214.174 129.478 213.355V245.018C129.478 247.241 127.617 249.043 125.321 249.043H79.0115C78.4314 250.822 77.4404 252.413 76.1111 253.677C73.9841 255.736 71.0596 257 67.845 257C64.6062 257 61.7058 255.736 59.5789 253.677C57.4519 251.618 56.1467 248.786 56.1467 245.673C56.1467 242.538 57.4519 239.729 59.5789 237.67C61.7058 235.611 64.6304 234.347 67.845 234.347C71.0837 234.347 73.9841 235.611 76.1111 237.67C77.1021 238.629 77.8997 239.753 78.5039 240.993H121.14V211.53C113.188 209.377 105.695 206.124 98.855 201.959C98.1057 202.614 97.1389 203.012 96.0513 203.012H70.7695C70.1895 204.486 69.271 205.797 68.135 206.873C66.0081 208.932 63.0835 210.196 59.8689 210.196C56.6543 210.196 53.7297 208.932 51.6028 206.873C49.4758 204.837 48.1707 202.005 48.1707 198.87C48.1707 195.734 49.4758 192.926 51.6028 190.866C53.7297 188.807 56.6543 187.543 59.8689 187.543C63.0835 187.543 66.0081 188.807 68.135 190.866C69.3193 192.013 70.262 193.417 70.842 194.961H88.9937C73.2349 182.02 62.3826 163.673 59.5063 142.845H16.5322V184.126C17.8132 184.688 18.9976 185.484 19.9644 186.443C22.0913 188.503 23.3965 191.311 23.3965 194.447C23.3965 197.559 22.0913 200.391 19.9644 202.45C17.8374 204.509 14.937 205.773 11.6982 205.773C8.48364 205.773 5.55908 204.509 3.43213 202.45C1.30518 200.414 0 197.582 0 194.447C0 191.334 1.30518 188.503 3.43213 186.443C4.76147 185.156 6.40503 184.197 8.21777 183.635V138.844C8.21777 136.62 10.0789 134.819 12.375 134.819H58.7812C58.7329 133.812 58.7329 132.806 58.7329 131.8C58.7329 124.522 59.6997 117.478 61.5125 110.761H22.6472C22.0671 112.282 21.1487 113.616 19.9885 114.74C17.8616 116.799 14.9612 118.063 11.7224 118.063C8.50781 118.063 5.58325 116.799 3.4563 114.74C1.32935 112.68 0.0241699 109.872 0.0241699 106.736C0.0241699 103.624 1.32935 100.792 3.4563 98.7327C5.58325 96.6734 8.48364 95.4097 11.7224 95.4097C14.937 95.4097 17.8616 96.6734 19.9885 98.7327C21.1245 99.8326 22.0671 101.19 22.6472 102.711H64.147C69.7544 88.2253 79.4465 75.6818 91.8457 66.3679V62.0619H70.8179C70.2378 63.6064 69.2952 65.0106 68.1108 66.1573C65.9839 68.2166 63.0593 69.4803 59.8447 69.4803C56.6301 69.4803 53.7056 68.2166 51.5786 66.1573C49.4517 64.0979 48.1465 61.2897 48.1465 58.1538C48.1465 55.0179 49.4517 52.1863 51.5786 50.1503C53.7056 48.091 56.6301 46.8273 59.8447 46.8273C63.0593 46.8273 65.9839 48.091 68.1108 50.1503C69.2468 51.2502 70.1411 52.5607 70.7454 54.0117H96.0271C98.3232 54.0117 100.184 55.8136 100.184 58.0368V60.845C106.662 57.0773 113.695 54.1053 121.115 52.0693V16.0069H78.5039C77.9238 17.2472 77.1021 18.3939 76.1111 19.33C73.9841 21.3894 71.0837 22.6531 67.845 22.6531C64.6304 22.6531 61.7058 21.3894 59.5789 19.33C57.4519 17.2706 56.1467 14.4624 56.1467 11.3265C56.1467 8.21408 57.4519 5.38244 59.5789 3.32307C61.7058 1.2637 64.6062 0 67.845 0C71.0596 0 73.9841 1.2637 76.1111 3.32307C77.4404 4.61018 78.4314 6.20151 79.0115 7.95666H125.297C127.593 7.95666 129.454 9.7586 129.454 11.9818V50.2205C134.264 49.4015 139.219 48.9802 144.27 48.9802ZM109.852 123.515H116.692V122.72V109.544C116.692 102.009 119.883 95.1756 125.007 90.2144C130.131 85.2532 137.213 82.1642 144.995 82.1642C152.778 82.1642 159.836 85.2532 164.96 90.2144C170.084 95.1756 173.274 102.032 173.274 109.544V122.72V123.515H178.712C179.921 123.515 180.912 124.475 180.912 125.645V170.717C180.912 171.887 179.921 172.847 178.712 172.847H109.852C108.644 172.847 107.653 171.887 107.653 170.717V125.645C107.653 124.475 108.644 123.515 109.852 123.515ZM127.666 123.515H162.253V122.72V109.404C162.253 104.794 160.295 100.605 157.177 97.5626C154.035 94.5204 149.708 92.6482 144.971 92.6482C140.21 92.6482 135.883 94.5438 132.741 97.5626C129.599 100.605 127.666 104.794 127.666 109.404V122.72V123.515ZM145.116 148.181L148.597 163.79L139.025 163.814L141.829 147.994C139.219 147.175 137.309 144.811 137.309 142.003C137.309 138.539 140.21 135.731 143.787 135.731C147.364 135.731 150.264 138.539 150.264 142.003C150.313 145.069 148.065 147.596 145.116 148.181Z" fill="black"/>
</svg>
