<svg width="112" height="124" viewBox="0 0 112 124" fill="none" xmlns="http://www.w3.org/2000/svg">
<path fill-rule="evenodd" clip-rule="evenodd" d="M65.6286 2.1889L104.078 24.6775C108.984 27.5472 112 32.8046 112 38.4886V84.7139C112 90.431 108.95 95.7136 103.998 98.5714L63.998 121.658C59.0486 124.514 52.9514 124.514 48.002 121.658L8.00197 98.5714C3.05044 95.7136 0 90.431 0 84.7139L0 38.7849C0 32.9427 3.1843 27.5649 8.30692 24.7558L49.8576 1.97087C54.7877 -0.732643 60.7751 -0.649868 65.6286 2.1889Z" fill="#E8F5F6"/>
<g clip-path="url(#clip0)">
<path fill-rule="evenodd" clip-rule="evenodd" d="M55.8713 24C69.6706 32.8153 82.133 36.9927 92.8349 36.005C94.7013 74.1089 80.7498 96.6108 56.0169 106C32.1312 97.2114 18.0076 75.6771 19.0533 35.4245C31.615 36.0918 43.9318 33.3491 55.8713 24Z" fill="#138496"/>
<path fill-rule="evenodd" clip-rule="evenodd" d="M55.8841 28.7046C68.095 36.5122 79.1344 40.2025 88.5987 39.3283C90.2533 73.0545 77.8968 92.974 56.0098 101.289C34.8707 93.5078 22.3686 74.4492 23.2952 38.8211C34.4141 39.4084 45.3212 36.986 55.8841 28.7046Z" fill="white"/>
<path fill-rule="evenodd" clip-rule="evenodd" d="M56.2216 37.0394C65.6329 43.0519 74.1309 45.8947 81.4244 45.2274C82.6951 71.2127 73.1845 86.5544 56.3143 92.9606C56.2084 92.9206 56.1025 92.8805 55.9966 92.8405C55.8907 92.8805 55.7848 92.9206 55.6789 92.9606C38.8153 86.5544 29.2981 71.2127 30.5688 45.2274C37.8622 45.9014 46.3668 43.0519 55.7715 37.0394L55.9899 37.2062L56.2216 37.0394Z" fill="#138496"/>
<path d="M42.4553 62.8913L47.3992 62.8245L47.7698 62.918C48.7692 63.4985 49.709 64.1592 50.5892 64.9133C51.2246 65.4538 51.8269 66.041 52.4027 66.6816C54.1764 63.8055 56.0692 61.1563 58.068 58.7272C60.2587 56.0646 61.6287 54.6032 64.0642 52.3944L64.5474 52.2075H69.948L68.8559 53.422C65.5137 57.1657 63.4223 60.0885 60.6822 64.0791C57.9356 68.083 55.4868 72.207 53.3028 76.4512L52.6211 77.7725L51.9989 76.4245C50.8474 73.9354 49.4707 71.6532 47.8294 69.6112C46.188 67.5692 44.2753 65.7541 42.0449 64.2126L42.4553 62.8913Z" fill="white"/>
</g>
<defs>
<clipPath id="clip0">
<rect width="74" height="82" fill="white" transform="translate(19 24)"/>
</clipPath>
</defs>
</svg>
