<svg width="112" height="125" viewBox="0 0 112 125" fill="none" xmlns="http://www.w3.org/2000/svg">
<path fill-rule="evenodd" clip-rule="evenodd" d="M65.6286 2.57611L104.078 25.0647C108.984 27.9344 112 33.1918 112 38.8758V85.1011C112 90.8182 108.95 96.1008 103.998 98.9586L63.998 122.045C59.0486 124.902 52.9514 124.902 48.002 122.045L8.00197 98.9586C3.05044 96.1008 0 90.8182 0 85.1011L0 39.1721C0 33.3299 3.1843 27.9521 8.30692 25.143L49.8576 2.35808C54.7877 -0.345436 60.7751 -0.262661 65.6286 2.57611Z" fill="#E8F5F6"/>
<path d="M93 67.1499C93 57.0418 88.9242 47.8689 82.3314 41.1844C82.28 41.116 82.2251 41.049 82.1628 40.9867C82.1004 40.9243 82.0337 40.8695 81.9653 40.8183C75.2808 34.2255 66.1079 30.1499 56 30.1499C45.8921 30.1499 36.7192 34.2257 30.0345 40.8183C29.9661 40.8697 29.8994 40.9246 29.837 40.9867C29.7746 41.049 29.7198 41.1157 29.6684 41.1844C23.0758 47.8689 19 57.0418 19 67.1499C19 77.0317 22.8478 86.3215 29.8343 93.3098C29.8353 93.3107 29.8363 93.312 29.8372 93.3129C29.838 93.3134 29.8385 93.3141 29.8392 93.3146C29.8402 93.3156 29.8411 93.3166 29.8421 93.3175C30.1973 93.6727 30.6629 93.8501 31.1285 93.8501C31.5943 93.8501 32.0602 93.6725 32.4154 93.3171C32.4457 93.2867 32.4731 93.2545 32.5008 93.2224L38.1083 87.6147C38.8189 86.9038 38.8189 85.7518 38.1083 85.0412C37.3976 84.3308 36.2454 84.3308 35.535 85.0412L31.159 89.4171C26.0564 83.739 23.0962 76.5928 22.6891 68.9696H28.8777C29.8826 68.9696 30.6973 68.1551 30.6973 67.1499C30.6973 66.1447 29.8826 65.3303 28.8777 65.3303H22.6896C23.1127 57.5003 26.2484 50.3803 31.1709 44.8944L35.535 49.2584C35.8902 49.6136 36.356 49.7912 36.8216 49.7912C37.2872 49.7912 37.7531 49.6136 38.1083 49.2584C38.8189 48.5475 38.8189 47.3956 38.1083 46.6849L33.7444 42.3206C39.2306 37.398 46.3504 34.2624 54.1803 33.8395V40.0278C54.1803 41.033 54.9951 41.8475 56 41.8475C57.0049 41.8475 57.8197 41.033 57.8197 40.0278V33.8395C65.6496 34.2624 72.7694 37.3983 78.2556 42.3209L73.8915 46.6849C73.1809 47.3958 73.1809 48.5478 73.8915 49.2584C74.2467 49.6136 74.7125 49.7912 75.1781 49.7912C75.6437 49.7912 76.1096 49.6136 76.4648 49.2584L80.8288 44.8944C85.7514 50.3806 88.8873 57.5003 89.3102 65.3303H83.1219C82.1169 65.3303 81.3022 66.1447 81.3022 67.1499C81.3022 68.1551 82.1169 68.9696 83.1219 68.9696H89.3104C88.9033 76.5928 85.9433 83.7393 80.8407 89.4174L76.4648 85.0412C75.7544 84.3308 74.6021 84.3308 73.8915 85.0412C73.1809 85.7521 73.1809 86.904 73.8915 87.6147L79.5895 93.3127C79.9447 93.6679 80.4105 93.8455 80.8761 93.8455C81.1088 93.8455 81.3417 93.8011 81.5608 93.7123C81.7799 93.6235 81.9852 93.4903 82.163 93.3127C89.1513 86.3242 93 77.0327 93 67.1499Z" fill="#138496"/>
<path d="M64.3598 46.2824C63.4264 45.9085 62.3676 46.3617 61.994 47.2949L56.7356 60.4208C56.4906 60.3946 56.2455 60.3766 56.0002 60.3766C53.4391 60.3766 51.1257 61.7952 49.9623 64.0788C48.7463 66.466 49.0578 69.3182 50.795 71.7081C50.9726 71.9524 51.1958 72.1759 51.4418 72.3547C52.8532 73.3807 54.4295 73.923 56.0002 73.923C58.5614 73.923 60.875 72.5044 62.0382 70.2208C63.2542 67.8336 62.9427 64.9816 61.2067 62.5935C61.0291 62.3484 60.8054 62.1242 60.5586 61.9447C60.4259 61.8481 60.2903 61.7601 60.1547 61.6722L65.3723 48.648C65.7459 47.7153 65.2927 46.656 64.3598 46.2824ZM58.795 68.5688C58.2561 69.6264 57.1852 70.2834 56 70.2834C55.2226 70.2834 54.4402 70.0119 53.6735 69.4762C52.8 68.2221 52.6285 66.8624 53.2052 65.7306C53.7438 64.673 54.8148 64.016 56.0002 64.016C56.3782 64.016 56.7572 64.0815 57.1352 64.2088C57.1476 64.2139 57.159 64.2205 57.1716 64.2256C57.2114 64.2414 57.2514 64.2542 57.2915 64.2671C57.6384 64.4003 57.9839 64.5837 58.3265 64.8229C59.1997 66.077 59.3715 67.4369 58.795 68.5688Z" fill="#138496"/>
</svg>
